<?xml version="1.0" encoding="UTF-8"?>
<svg width="453px" height="44px" viewBox="0 0 453 44" version="1.1" xmlns="http://www.w3.org/2000/svg" xmlns:xlink="http://www.w3.org/1999/xlink">
    <!-- Generator: Sketch 42 (36781) - http://www.bohemiancoding.com/sketch -->
    <title>site-logo</title>
    <desc>Created with Sketch.</desc>
    <defs></defs>
    <g id="Page-1" stroke="none" stroke-width="1" fill="none" fill-rule="evenodd">
        <g id="site-logo" fill="#000000">
            <path d="M30.21875,1.1875 C32.6562622,1.87500344 34.0208319,2.21875 34.3125,2.21875 C34.9166697,2.21875 35.4895806,2.052085 36.03125,1.71875 C36.5729194,1.385415 36.9479156,0.864586875 37.15625,0.15625 L38.5,0.15625 L39.09375,14.53125 L37.625,14.53125 C36.7708291,11.6770691 35.6562569,9.37500875 34.28125,7.625 C31.6562369,4.33331687 28.1250222,2.6875 23.6875,2.6875 C19.2083109,2.6875 15.5468892,4.45831563 12.703125,8 C9.85936078,11.5416844 8.4375,16.4166356 8.4375,22.625 C8.4375,28.3333619 9.93227672,32.890608 12.921875,36.296875 C15.9114733,39.703142 19.6978937,41.40625 24.28125,41.40625 C27.5937666,41.40625 30.6458194,40.6145912 33.4375,39.03125 C35.0416747,38.1354122 36.8020737,36.7812591 38.71875,34.96875 L39.90625,36.15625 C38.4895762,37.9479256 36.7291772,39.5208266 34.625,40.875 C31.0416488,43.1666781 27.1562709,44.3125 22.96875,44.3125 C16.0937156,44.3125 10.6354369,42.1146053 6.59375,37.71875 C2.86456469,33.6562297 1,28.5833637 1,22.5 C1,16.2708022 2.96873031,11.0416878 6.90625,6.8125 C11.0521041,2.37497781 16.4478834,0.15625 23.09375,0.15625 C25.4062616,0.15625 27.7812378,0.499996563 30.21875,1.1875 L30.21875,1.1875 Z M72.45625,26.8125 L65.05,9.1875 L57.7375,26.8125 L72.45625,26.8125 Z M44.83125,43.25 L44.83125,42.09375 C46.4770915,41.9062491 47.7114542,41.2812553 48.534375,40.21875 C49.3572957,39.1562447 50.76874,36.2708569 52.76875,31.5625 L66.1125,0.15625 L67.3625,0.15625 L83.3,36.4375 C84.3625053,38.8541788 85.2114551,40.3489555 85.846875,40.921875 C86.4822948,41.4947945 87.5499925,41.8854156 89.05,42.09375 L89.05,43.25 L72.76875,43.25 L72.76875,42.09375 C74.6437593,41.9270825 75.8520806,41.7239595 76.39375,41.484375 C76.9354193,41.2447905 77.20625,40.6562547 77.20625,39.71875 C77.20625,39.4062484 77.1020843,38.8541706 76.89375,38.0625 C76.6854156,37.2708294 76.3937518,36.4375044 76.01875,35.5625 L73.3625,29.40625 L56.6125,29.40625 C54.945825,33.5937709 53.9510432,36.151037 53.628125,37.078125 C53.3052067,38.005213 53.14375,38.7395806 53.14375,39.28125 C53.14375,40.3645887 53.5812456,41.1145813 54.45625,41.53125 C54.9979193,41.7812512 56.0187425,41.9687494 57.51875,42.09375 L57.51875,43.25 L44.83125,43.25 Z M96.0374999,30.375 C97.1208387,33.2500144 98.3916593,35.5416581 99.8499999,37.25 C102.391679,40.2291816 105.547898,41.71875 109.31875,41.71875 C111.360427,41.71875 113.126034,41.0729231 114.615625,39.78125 C116.105216,38.4895769 116.85,36.6875116 116.85,34.375 C116.85,32.2916563 116.100007,30.4791744 114.6,28.9375 C113.620828,27.9583284 111.558349,26.4895931 108.4125,24.53125 L102.94375,21.125 C101.297908,20.0833281 99.9854215,19.0312553 99.0062499,17.96875 C97.1937408,15.9479066 96.2874999,13.7187622 96.2874999,11.28125 C96.2874999,8.05206719 97.3604058,5.36459406 99.5062499,3.21875 C101.652094,1.07290594 104.495816,0 108.0375,0 C109.495841,0 111.251031,0.359371406 113.303125,1.078125 C115.355218,1.79687859 116.527082,2.15625 116.81875,2.15625 C117.610421,2.15625 118.15729,1.96875188 118.459375,1.59375 C118.76146,1.21874812 118.995832,0.687503437 119.1625,0 L120.475,0 L121.88125,13.625 L120.35,13.625 C119.308328,9.52081281 117.63647,6.65625812 115.334375,5.03125 C113.03228,3.40624188 110.756261,2.59375 108.50625,2.59375 C106.756241,2.59375 105.230215,3.10936984 103.928125,4.140625 C102.626035,5.17188016 101.975,6.6041575 101.975,8.4375 C101.975,10.0833416 102.474995,11.4895775 103.475,12.65625 C104.475005,13.8437559 106.027073,15.0833269 108.13125,16.375 L113.75625,19.84375 C117.277101,22.0104275 119.756243,23.9999909 121.19375,25.8125 C122.610424,27.6458425 123.31875,29.8124875 123.31875,32.3125 C123.31875,35.6666834 122.053138,38.4687387 119.521875,40.71875 C116.990612,42.9687613 113.75627,44.09375 109.81875,44.09375 C107.839573,44.09375 105.771886,43.7187538 103.615625,42.96875 C101.459364,42.2187462 100.225001,41.84375 99.9124999,41.84375 C99.1624962,41.84375 98.6572929,42.0729144 98.3968749,42.53125 C98.1364569,42.9895856 97.9645837,43.4791641 97.8812499,44 L96.4749999,44 L94.5687499,30.375 L96.0374999,30.375 Z M154.86875,26.8125 L147.4625,9.1875 L140.15,26.8125 L154.86875,26.8125 Z M127.24375,43.25 L127.24375,42.09375 C128.889591,41.9062491 130.123954,41.2812553 130.946875,40.21875 C131.769796,39.1562447 133.18124,36.2708569 135.18125,31.5625 L148.525,0.15625 L149.775,0.15625 L165.7125,36.4375 C166.775005,38.8541788 167.623955,40.3489555 168.259375,40.921875 C168.894795,41.4947945 169.962492,41.8854156 171.4625,42.09375 L171.4625,43.25 L155.18125,43.25 L155.18125,42.09375 C157.056259,41.9270825 158.26458,41.7239595 158.80625,41.484375 C159.347919,41.2447905 159.61875,40.6562547 159.61875,39.71875 C159.61875,39.4062484 159.514584,38.8541706 159.30625,38.0625 C159.097915,37.2708294 158.806252,36.4375044 158.43125,35.5625 L155.775,29.40625 L139.025,29.40625 C137.358325,33.5937709 136.363543,36.151037 136.040625,37.078125 C135.717707,38.005213 135.55625,38.7395806 135.55625,39.28125 C135.55625,40.3645887 135.993745,41.1145813 136.86875,41.53125 C137.410419,41.7812512 138.431242,41.9687494 139.93125,42.09375 L139.93125,43.25 L127.24375,43.25 Z M175.04375,42.09375 C177.689596,41.8229153 179.387496,41.223963 180.1375,40.296875 C180.887504,39.369787 181.2625,37.2187669 181.2625,33.84375 L181.2625,7.84375 C181.2625,5.53123844 180.89792,4.02604516 180.16875,3.328125 C179.439579,2.63020484 177.783346,2.21875062 175.2,2.09375 L175.2,0.90625 L187.85625,0.90625 L202.66875,33.1875 L216.825,0.90625 L229.575,0.90625 L229.575,2.09375 C227.199988,2.2604175 225.668753,2.69270484 224.98125,3.390625 C224.293746,4.08854516 223.95,5.57290531 223.95,7.84375 L223.95,36.3125 C223.95,38.645845 224.293746,40.1406217 224.98125,40.796875 C225.668753,41.4531283 227.199988,41.8854156 229.575,42.09375 L229.575,43.25 L211.6375,43.25 L211.6375,42.09375 C214.220846,41.8854156 215.830205,41.4218786 216.465625,40.703125 C217.101045,39.9843714 217.41875,38.2708469 217.41875,35.5625 L217.41875,6.8125 L201.04375,43.25 L200.16875,43.25 L184.075,8.3125 L184.075,33.84375 C184.075,37.3437675 184.585411,39.6249947 185.60625,40.6875 C186.27292,41.3750034 187.762488,41.8437488 190.075,42.09375 L190.075,43.25 L175.04375,43.25 L175.04375,42.09375 Z M261.59375,26.8125 L254.1875,9.1875 L246.875,26.8125 L261.59375,26.8125 Z M233.96875,43.25 L233.96875,42.09375 C235.614591,41.9062491 236.848954,41.2812553 237.671875,40.21875 C238.494796,39.1562447 239.90624,36.2708569 241.90625,31.5625 L255.25,0.15625 L256.5,0.15625 L272.4375,36.4375 C273.500005,38.8541788 274.348955,40.3489555 274.984375,40.921875 C275.619795,41.4947945 276.687492,41.8854156 278.1875,42.09375 L278.1875,43.25 L261.90625,43.25 L261.90625,42.09375 C263.781259,41.9270825 264.98958,41.7239595 265.53125,41.484375 C266.072919,41.2447905 266.34375,40.6562547 266.34375,39.71875 C266.34375,39.4062484 266.239584,38.8541706 266.03125,38.0625 C265.822915,37.2708294 265.531252,36.4375044 265.15625,35.5625 L262.5,29.40625 L245.75,29.40625 C244.083325,33.5937709 243.088543,36.151037 242.765625,37.078125 C242.442706,38.005213 242.28125,38.7395806 242.28125,39.28125 C242.28125,40.3645887 242.718745,41.1145813 243.59375,41.53125 C244.135419,41.7812512 245.156242,41.9687494 246.65625,42.09375 L246.65625,43.25 L233.96875,43.25 Z M303.64375,19.90625 C307.0396,18.5104097 308.7375,15.8854359 308.7375,12.03125 C308.7375,8.32289812 307.216682,5.79167344 304.175,4.4375 C302.549992,3.70832969 300.393763,3.34375 297.70625,3.34375 C295.893741,3.34375 294.784377,3.47395703 294.378125,3.734375 C293.971873,3.99479297 293.76875,4.60416187 293.76875,5.5625 L293.76875,21.34375 C298.372939,21.1770825 301.664573,20.6979206 303.64375,19.90625 L303.64375,19.90625 Z M281.76875,42.09375 C284.227095,41.8645822 285.75833,41.3854203 286.3625,40.65625 C286.966669,39.9270797 287.26875,38.22918 287.26875,35.5625 L287.26875,7.84375 C287.26875,5.59373875 286.930211,4.11979516 286.253125,3.421875 C285.576038,2.72395484 284.081261,2.28125094 281.76875,2.09375 L281.76875,0.90625 L299.4875,0.90625 C303.175018,0.90625 306.247904,1.37499531 308.70625,2.3125 C313.37294,4.08334219 315.70625,7.34372625 315.70625,12.09375 C315.70625,15.2812659 314.669802,17.7291581 312.596875,19.4375 C310.523948,21.1458419 307.706268,22.2708306 304.14375,22.8125 L317.33125,39.03125 C318.143754,40.031255 318.956246,40.7604144 319.76875,41.21875 C320.581254,41.6770856 321.62291,41.9687494 322.89375,42.09375 L322.89375,43.25 L312.58125,43.25 L297.33125,23.5625 L293.76875,23.71875 L293.76875,36.3125 C293.76875,38.6875119 294.128121,40.1927052 294.846875,40.828125 C295.565628,41.4635448 297.133321,41.8854156 299.55,42.09375 L299.55,43.25 L281.76875,43.25 L281.76875,42.09375 Z M326.25625,42.09375 C328.610428,41.8437488 330.136455,41.421878 330.834375,40.828125 C331.532295,40.234372 331.88125,38.7291788 331.88125,36.3125 L331.88125,7.84375 C331.88125,5.57290531 331.537503,4.08854516 330.85,3.390625 C330.162496,2.69270484 328.631262,2.2604175 326.25625,2.09375 L326.25625,0.90625 L360.25625,0.90625 L360.475,10.09375 L358.85,10.09375 C358.30833,7.2604025 357.495838,5.4270875 356.4125,4.59375 C355.329161,3.7604125 352.912518,3.34375 349.1625,3.34375 L340.475,3.34375 C339.537495,3.34375 338.959376,3.49479016 338.740625,3.796875 C338.521874,4.09895984 338.4125,4.6666625 338.4125,5.5 L338.4125,19.78125 L348.25625,19.78125 C350.98543,19.78125 352.724996,19.3750041 353.475,18.5625 C354.225003,17.7499959 354.829164,16.1041791 355.2875,13.625 L356.7875,13.625 L356.7875,28.4375 L355.2875,28.4375 C354.808331,25.9583209 354.193753,24.3177123 353.44375,23.515625 C352.693746,22.7135377 350.964597,22.3125 348.25625,22.3125 L338.4125,22.3125 L338.4125,38.15625 C338.4125,39.4270897 338.813537,40.1770822 339.615625,40.40625 C340.417712,40.6354178 342.81873,40.75 346.81875,40.75 C351.152105,40.75 354.349989,40.2760464 356.4125,39.328125 C358.47501,38.3802036 360.329158,36.0833516 361.975,32.4375 L363.75625,32.4375 L360.85,43.25 L326.25625,43.25 L326.25625,42.09375 Z M367.15,42.09375 C369.504178,41.8437488 371.030204,41.421878 371.728125,40.828125 C372.426045,40.234372 372.775,38.7291788 372.775,36.3125 L372.775,7.84375 C372.775,5.57290531 372.431253,4.08854516 371.74375,3.390625 C371.056246,2.69270484 369.525011,2.2604175 367.15,2.09375 L367.15,0.90625 L385.24375,0.90625 L385.24375,2.09375 C382.889571,2.21875062 381.311462,2.60416344 380.509375,3.25 C379.707287,3.89583656 379.30625,5.28123937 379.30625,7.40625 L379.30625,38.15625 C379.30625,38.8645869 379.42604,39.421873 379.665625,39.828125 C379.905209,40.234377 380.431246,40.4895828 381.24375,40.59375 C381.722919,40.6562503 382.228122,40.6979166 382.759375,40.71875 C383.290627,40.7395834 384.285409,40.75 385.74375,40.75 C391.431278,40.75 395.27499,40.2812547 397.275,39.34375 C399.27501,38.4062453 401.21249,36.0104359 403.0875,32.15625 L404.7125,32.15625 L401.5875,43.25 L367.15,43.25 L367.15,42.09375 Z M435.8875,26.8125 L428.48125,9.1875 L421.16875,26.8125 L435.8875,26.8125 Z M408.2625,43.25 L408.2625,42.09375 C409.908341,41.9062491 411.142704,41.2812553 411.965625,40.21875 C412.788545,39.1562447 414.19999,36.2708569 416.2,31.5625 L429.54375,0.15625 L430.79375,0.15625 L446.73125,36.4375 C447.793755,38.8541788 448.642705,40.3489555 449.278125,40.921875 C449.913544,41.4947945 450.981242,41.8854156 452.48125,42.09375 L452.48125,43.25 L436.2,43.25 L436.2,42.09375 C438.075009,41.9270825 439.28333,41.7239595 439.825,41.484375 C440.366669,41.2447905 440.6375,40.6562547 440.6375,39.71875 C440.6375,39.4062484 440.533334,38.8541706 440.325,38.0625 C440.116665,37.2708294 439.825001,36.4375044 439.45,35.5625 L436.79375,29.40625 L420.04375,29.40625 C418.377075,33.5937709 417.382293,36.151037 417.059375,37.078125 C416.736456,38.005213 416.575,38.7395806 416.575,39.28125 C416.575,40.3645887 417.012495,41.1145813 417.8875,41.53125 C418.429169,41.7812512 419.449992,41.9687494 420.95,42.09375 L420.95,43.25 L408.2625,43.25 Z" id="CASAMARELA-Copy"></path>
        </g>
    </g>
</svg>